<svg xmlns="http://www.w3.org/2000/svg" xmlns:xlink="http://www.w3.org/1999/xlink" version="1.1" width="65.567802131176" height="65.56780976057053" viewBox="0.014946907758712769 0.03594687581062317 65.567802131176 65.56780976057053">
  <!-- Exported by Scratch - http://scratch.mit.edu/ -->
  <g id="ID0.5892176600173116">
    <path id="ID0.12555817235261202" fill="#272525" d="M 32.7988 0.4432 C 41.7315 0.4432 49.8253 4.071 55.6865 9.9322 C 61.5477 15.7934 65.1755 23.8871 65.1755 32.8198 C 65.1755 41.7525 61.5477 49.8463 55.6865 55.7075 C 49.8253 61.5686 41.7315 65.1965 32.7988 65.1965 C 23.8662 65.1965 15.7724 61.5686 9.9112 55.7075 C 4.05 49.8463 0.4222 41.7525 0.4222 32.8198 C 0.4222 23.8871 4.05 15.7934 9.9112 9.9322 C 15.7724 4.071 23.8662 0.4432 32.7988 0.4432 Z " stroke-width="0.8145062327384949"/>
    <path id="ID0.5458583473227918" fill="#FFFFFF" d="M 63.1824 32.573 C 63.1824 48.8241 49.4897 61.9979 32.5993 61.9979 C 15.7089 61.9979 3.172 48.9617 3.172 32.7099 C 3.172 16.4597 15.7072 3.1482 32.5985 3.1482 C 49.4897 3.1482 63.1824 16.322 63.1824 32.573 L 63.1824 32.573 Z " stroke-width="0.8145062327384949"/>
    <path id="ID0.8007480315864086" fill="#272525" d="M 25.777 15.2827 C 27.0102 14.7973 37.5059 16.3855 38.6226 17.6798 C 39.7376 18.9749 38.8009 29.8754 37.9579 30.9823 C 37.1149 32.09 26.8212 35.7293 25.3616 35.1249 C 23.902 34.5197 17.2776 27.2551 17.772 25.4469 C 18.2664 23.6387 24.5438 15.7673 25.777 15.2827 L 25.777 15.2827 Z " stroke-width="0.8145062327384949"/>
    <path id="ID0.3096846779808402" fill="#272525" d="M 44.6646 36.2456 C 44.9847 35.2967 54.5706 30.8609 55.9471 31.8164 C 57.3228 32.771 60.7372 40.9942 60.4872 42.2738 C 60.2371 43.5542 53.8864 52.3802 52.3975 52.8746 C 50.9102 53.3682 43.3597 50.2348 42.7138 49.2753 C 42.0679 48.3158 44.3453 37.1954 44.6646 36.2456 L 44.6646 36.2456 Z " stroke-width="0.8145062327384949"/>
    <path id="ID0.7317186729051173" fill="#272525" d="M 19.3106 61.5255 C 19.3106 61.5255 13.9601 52.4071 14.3641 51.3319 C 14.7689 50.2584 23.0468 48.1122 24.543 48.214 C 26.0384 48.3142 34.5875 55.3075 34.7333 56.5725 C 34.8799 57.8366 31.2879 64.7884 31.2879 64.7884 L 19.3106 61.5255 L 19.3106 61.5255 Z " stroke-width="0.8145062327384949"/>
    <path id="ID0.6810249714180827" fill="#272525" d="M 62.8541 21.5072 C 62.8541 21.5072 57.1062 24.1714 56.0009 24.0012 C 54.894 23.8318 46.7709 17.0266 45.9727 16.0565 C 45.1769 15.088 43.0657 8.4172 44.0236 7.672 C 44.9814 6.9267 52.8642 8.9792 52.8642 8.9792 L 62.8541 21.5072 L 62.8541 21.5072 Z " stroke-width="0.8145062327384949"/>
    <path id="ID0.9793273489922285" fill="#272525" d="M 9.4258 19.7519 C 10.5848 19.8773 12.3775 27.471 12.4378 28.3987 C 12.4973 29.3264 10.0619 40.0795 9.4527 40.9429 C 8.8426 41.8071 3.8024 42.6688 3.8024 42.6688 C -0.297 34.4122 3.0099 26.3258 3.0099 26.3258 C 3.0099 26.3258 8.2667 19.6265 9.4258 19.7519 L 9.4258 19.7519 Z " stroke-width="0.8145062327384949"/>
    <path id="ID0.3751531937159598" fill="#272525" d="M 33.2525 2.4029 C 33.2525 2.4029 34.1974 3.5163 33.7616 4.5907 C 33.3258 5.6642 25.6507 9.2586 24.776 9.6479 C 23.902 10.0365 24.776 9.6479 24.776 9.6479 C 24.776 9.6479 18.2607 10.7435 17.6808 10.1953 C 17.1009 9.6479 16.6146 6.9275 16.6146 6.9275 L 24.2433 2.7499 L 33.2525 2.4029 L 33.2525 2.4029 Z " stroke-width="0.8145062327384949"/>
  </g>
</svg>