<?xml version="1.0" encoding="utf-8"?><!-- Generator: Adobe Illustrator 16.0.0, SVG Export Plug-In . SVG Version: 6.00 Build 0)  --><!DOCTYPE svg PUBLIC "-//W3C//DTD SVG 1.0//EN" "http://www.w3.org/TR/2001/REC-SVG-20010904/DTD/svg10.dtd"><svg xmlns="http://www.w3.org/2000/svg" xmlns:xlink="http://www.w3.org/1999/xlink" version="1.0" id="Layer_1" x="0px" y="0px" width="480.9989929199219" height="360.99798583984375" viewBox="-0.5 -0.49899999995250255 480.9989929199219 360.99798583984375" enable-background="new 0 0 480 360" xml:space="preserve">
<g>
	<defs>
		<rect id="SVGID_1_" width="480" height="360" stroke-width="1"/>
	</defs>
	<clipPath id="SVGID_2_">
		<use xlink:href="#SVGID_1_" overflow="visible"/>
	</clipPath>
	<g id="dp_dp001" clip-path="url(#SVGID_2_)">
		<g id="clip">
			<path id="dp_path002" fill="none" stroke="#1EB4EA" d="M0.75,0.75h478.499v358.499H0.75V0.75 M20.687,0.75v358.499 M40.624,0.75     v358.499 M60.562,0.75v358.499 M80.499,0.75v358.499 M100.436,0.75v358.499 M120.375,0.75v358.499 M140.312,0.75v358.499      M160.249,0.75v358.499 M180.187,0.75v358.499 M200.124,0.75v358.499 M220.061,0.75v358.499 M239.999,0.75v358.499 M259.936,0.75     v358.499 M279.873,0.75v358.499 M299.811,0.75v358.499 M319.748,0.75v358.499 M339.685,0.75v358.499 M359.624,0.75v358.499      M379.561,0.75v358.499 M399.499,0.75v358.499 M419.436,0.75v358.499 M439.373,0.75v358.499 M459.311,0.75v358.499 M0.75,20.665     h478.499 M0.75,40.583h478.499 M0.75,60.499h478.499 M0.75,80.416h478.499 M0.75,100.332h478.499 M0.75,120.249h478.499      M0.75,140.165h478.499 M0.75,160.083h478.499 M0.75,179.999h478.499 M0.75,199.915h478.499 M0.75,219.832h478.499 M0.75,239.748     h478.499 M0.75,259.665h478.499 M0.75,279.581h478.499 M0.75,299.499h478.499 M0.75,319.415h478.499 M0.75,339.332h478.499" stroke-width="1"/>
			<path id="dp_path003" fill="none" stroke="#A7A6A6" d="M240,0.001v359.998" stroke-width="1"/>
			<path id="dp_path004" fill="none" stroke="#A7A6A6" d="M0,180h479.999" stroke-width="1"/>
		</g>
	</g>
</g>
</svg>