<svg xmlns="http://www.w3.org/2000/svg" xmlns:xlink="http://www.w3.org/1999/xlink" version="1.1" width="178.81978667563885" height="208.39189971274823" viewBox="-1.0806432405446458 -8.563558403584807 178.81978667563885 208.39189971274823">
  <!-- Exported by Scratch - http://scratch.mit.edu/ -->
  <g id="XMLID_56_">
    <path id="XMLID_57_" fill="#549A10" d="M 175.7784 23.7536 L 175.7784 122.5751 C 175.7784 124.5358 174.9941 126.4966 173.4255 127.2809 C 160.8767 138.261 145.1908 143.7511 129.1127 143.7511 C 113.0346 143.7511 97.3487 137.8689 84.7999 127.2809 C 74.604 118.6536 62.0553 113.5557 48.7222 113.5557 C 36.5656 113.5557 24.8012 117.4772 14.9974 125.3201 L 14.9974 190.809 C 14.9974 194.7304 11.8603 197.8676 7.9388 197.8676 C 4.0173 197.8676 0.8801 194.7304 0.8801 190.809 L 0.8801 23.7536 C 0.8801 20.6164 2.8408 18.6557 4.8016 17.4793 C 17.3503 7.2834 32.252 1.7933 47.9379 1.7933 C 64.016 1.7933 80.0941 7.6755 92.6429 18.2636 C 102.8387 26.8908 115.3875 31.5966 128.7206 31.5966 C 142.0536 31.5966 154.6024 26.8908 164.7982 18.2636 C 167.1511 16.695 169.8962 16.3028 172.2491 17.4793 C 174.602 18.6557 175.7784 21.0086 175.7784 23.7536 Z " stroke-width="3.9214865047404146"/>
  </g>
  <text id="ID0.9183898973278701" fill="#FFFFFF" text-anchor="start" font-family="Sans Serif" font-size="22" transform="matrix(3.98711 0 0 3.98711 34.2742 -11.7113)" stroke-width="1" alignment-baseline="text-before-edge" xml:space="preserve"><tspan x="0" style="white-space: pre" dy="1.13em">go</tspan></text>
</svg>