<svg xmlns="http://www.w3.org/2000/svg" xmlns:xlink="http://www.w3.org/1999/xlink" version="1.1" width="125.14648222991512" height="197.87919402190732" viewBox="-0.9973629716470169 -0.20248150859617464 125.14648222991512 197.87919402190732">
  <!-- Exported by Scratch - http://scratch.mit.edu/ -->
  <g id="ID0.528692465275526">
    <g id="ID0.969818405341357">
      <g id="R_Foot_2_">
        <g id="R_Foot_3_">
          <path id="Foot_Fill_4_" fill="#FF9248" d="M 78.7409 176.9558 C 79.8813 175.9262 82.9799 173.7087 87.6367 174.6452 C 89.7394 175.0689 91.9094 176.0985 94.0873 177.7121 C 94.1685 176.7499 94.5011 175.2194 95.7168 174.1285 C 96.9008 173.0692 98.6233 172.6831 100.8488 172.9722 L 83.3086 158.681 C 83.3026 158.681 81.3148 157.3782 79.1665 156.9446 C 77.347 156.5784 75.967 156.9407 75.074 158.0178 C 72.9832 160.5283 76.8144 172.004 78.7409 176.9558 L 78.7409 176.9558 Z " stroke-width="1.9799313242126004"/>
          <path id="Shadow_8_" fill="#E87528" d="M 91.6738 176.1005 C 91.6738 176.1005 73.2248 144.976 78.925 176.2371 C 78.923 176.2391 84.447 172.2277 91.6738 176.1005 Z " stroke-width="1.9799313242126004"/>
          <path id="Shadow_7_" fill="#E87528" d="M 99.6014 172.4693 C 99.6014 172.4693 95.5544 172.9227 94.1546 176.5974 C 94.1546 176.5974 68.9382 147.5043 99.6014 172.4693 Z " stroke-width="1.9799313242126004"/>
          <path id="Outline_17_" d="M 79.0814 157.3683 C 81.1544 157.7841 83.0829 159.0533 83.1066 159.0651 L 99.5222 172.4475 C 97.8195 172.4396 96.4474 172.895 95.4257 173.8077 C 94.3883 174.7422 93.9448 175.9639 93.7586 176.9479 C 91.7253 175.5322 89.6978 174.6195 87.7238 174.2235 C 83.4234 173.3583 80.3941 175.0868 78.923 176.2391 C 76.5055 169.9271 73.692 160.3442 75.4047 158.2969 C 76.2046 157.3367 77.4103 157.0318 79.0814 157.3683 M 79.2517 156.5229 C 77.638 156.2002 75.9155 156.3328 74.7434 157.7426 C 71.92 161.1342 78.5825 177.722 78.5825 177.722 C 78.5825 177.722 81.8751 173.9285 87.5535 175.0689 C 89.581 175.4768 91.9094 176.5123 94.5071 178.5754 C 94.5071 178.5754 93.919 171.9882 101.6823 173.5483 C 101.9338 173.5978 102.1852 173.6553 102.4525 173.7226 L 83.5838 158.3484 C 83.5838 158.3484 81.5266 156.9803 79.2517 156.5229 L 79.2517 156.5229 Z " stroke-width="1.9799313242126004"/>
        </g>
        <g id="R_Skate_2_">
          <g id="Blade_6_">
            <path id="Blade_7_" fill="#B7B7B7" d="M 80.4594 181.6958 C 80.4594 181.6958 81.2019 184.7053 87.211 186.5743 L 86.5933 191.837 C 86.5933 191.837 75.6878 186.2714 73.5554 173.382 L 74.2781 169.7904 L 73.2406 165.2208 L 72.0566 169.343 C 72.0566 169.343 71.5438 165.7276 70.9597 164.5911 C 70.4727 163.6428 69.1639 163.9556 69.8609 168.9034 C 70.0945 170.5468 71.4448 196.4542 95.9801 196.2542 L 90.0859 193.0546 L 92.7172 186.7901 C 92.7172 186.7901 99.0688 186.6515 98.8629 181.1097 C 98.8669 181.1097 92.4954 187.4158 80.4594 181.6958 Z " stroke-width="1.9799313242126004"/>
            <path id="Blade_Outline_3_" d="M 89.773 196.1235 C 73.5732 192.8665 70.1836 176.3222 69.4768 169.3568 L 69.4352 168.9608 C 69.1719 167.1096 69.0313 164.7456 69.845 163.9754 C 70.3004 163.5418 71.0033 163.7279 71.3438 164.3951 C 71.6685 165.0188 71.9576 166.3018 72.1675 167.3967 L 72.8268 165.1039 L 73.6623 165.1257 L 74.7038 169.8756 L 73.9811 173.4652 C 75.7809 184.1964 84.0253 189.8115 86.2408 191.142 L 86.7418 186.8772 C 80.8812 184.9508 80.0734 181.9314 80.0397 181.8027 L 79.8219 180.9196 L 80.6436 181.3117 C 82.6255 182.2521 84.5757 182.9194 86.4468 183.2936 C 94.311 184.8755 98.5243 180.8464 98.562 180.8068 L 99.2609 180.1178 L 99.2985 181.0939 C 99.3579 182.7174 98.8946 184.0697 97.9165 185.1052 C 96.3227 186.7961 93.8517 187.1346 93.0181 187.2039 L 90.6363 192.8646 L 95.9861 196.6858 C 93.8022 196.7017 91.7134 196.5156 89.773 196.1235 L 89.773 196.1235 Z M 70.4133 164.5931 C 70.4271 164.6109 69.7718 165.1871 70.2866 168.8401 L 70.3321 169.2717 C 71.0231 176.045 74.3078 192.1379 89.9413 195.2801 C 91.2996 195.5553 91.8836 195.6761 93.3745 195.7434 L 89.5335 193.2467 L 92.4301 186.3644 L 92.7113 186.3585 C 92.739 186.3545 95.6356 186.2654 97.2908 184.5092 C 97.9106 183.846 98.2828 183.0223 98.4016 182.0462 C 96.7939 183.2065 92.7192 185.4319 86.2725 184.137 C 84.7123 183.8262 83.0967 183.3134 81.4593 182.6184 C 82.2057 183.5965 83.8451 185.0755 87.3377 186.1625 L 87.6803 186.2674 L 86.9477 192.5042 L 86.3973 192.2211 C 86.2844 192.1656 75.276 186.406 73.1317 173.4513 L 73.8366 169.7964 L 73.1911 166.9512 L 72.6565 168.8104 L 71.9596 170.5309 C 71.821 169.5449 71.0251 165.6643 70.5756 164.7872 C 70.5004 164.6486 70.4331 164.601 70.4133 164.5931 L 70.4133 164.5931 Z " stroke-width="1.9799313242126004"/>
          </g>
          <g id="Boot_6_">
            <g id="Boot_7_">
              <path id="Fill_7_" fill="#FFFFFF" d="M 73.009 163.7833 C 73.009 163.7833 75.0522 177.7973 78.6438 181.8165 C 82.2354 185.8358 93.4003 186.0496 97.5462 184.0242 C 101.6902 181.9987 102.9633 174.572 101.611 172.5406 C 100.2607 170.5092 85.8845 159.7245 85.8845 159.7245 C 85.8845 159.7245 78.4181 152.1136 73.6049 157.5248 C 73.6029 157.5248 72.2764 160.8807 73.009 163.7833 Z " stroke-width="1.9799313242126004"/>
              <path id="Outline_16_" d="M 84.8311 185.2022 L 84.8311 185.2022 C 82.7482 184.7845 79.9308 183.9054 78.3231 182.1056 C 74.6919 178.0329 72.6664 164.4228 72.5833 163.8467 C 71.8368 160.8867 73.1456 157.5089 73.201 157.3683 C 74.8483 155.4815 76.8243 154.8301 79.1685 155.3013 C 82.8334 156.0359 86.0567 159.2889 86.1933 159.4255 C 86.7299 159.8235 100.5934 170.2339 101.9734 172.305 C 102.7119 173.4157 102.7574 175.8094 102.0961 178.2626 C 101.2943 181.2067 99.7064 183.45 97.7383 184.4142 C 94.9367 185.7784 89.3889 186.1189 84.8311 185.2022 L 84.8311 185.2022 Z M 73.9296 157.8119 C 73.9554 157.8158 72.7476 160.9896 73.4267 163.6804 C 73.4544 163.8605 75.4997 177.6527 78.9666 181.5314 C 80.1149 182.8184 82.1998 183.7945 85.0014 184.3588 L 85.0014 184.3588 C 89.3256 185.228 94.7506 184.9092 97.3562 183.6401 C 99.1064 182.7847 100.528 180.7434 101.2586 178.0388 C 101.8447 175.8807 101.8427 173.6711 101.2527 172.7821 C 100.1756 171.1665 89.6067 163.0607 85.6231 160.0729 C 85.5439 159.9997 82.3978 156.8298 78.9963 156.1487 C 76.9787 155.7389 75.272 156.2992 73.9296 157.8119 L 73.9296 157.8119 L 73.9296 157.8119 Z " stroke-width="1.9799313242126004"/>
            </g>
            <g id="Laces_3_">
              <path id="Lace_7_" fill="#5BDDDD" stroke="#000000" stroke-width="0.4949828310531501" d="M 89.6978 162.6805 C 89.6978 162.6805 83.3264 160.5006 80.2555 163.7338 C 80.2555 163.7338 78.7131 165.4009 80.8455 165.7217 C 82.9839 166.0424 82.7383 162.2766 91.6025 164.1575 L 89.6978 162.6805 Z "/>
              <path id="Lace_6_" fill="#5BDDDD" stroke="#000000" stroke-width="0.4949828310531501" d="M 94.8021 166.3137 C 94.8021 166.3137 87.3377 163.5794 83.5838 168.0976 C 83.5838 168.0976 81.691 170.43 84.2055 170.7844 C 86.7239 171.1368 86.5754 166.0206 97.0018 168.2501 L 94.8021 166.3137 Z "/>
            </g>
          </g>
        </g>
      </g>
      <g id="L_Foot_2_">
        <g id="L_Foot_3_">
          <path id="Foot_Fill_3_" fill="#FF9248" d="M 26.1974 175.9183 C 25.7302 174.4571 24.174 170.9804 19.6775 169.442 C 17.6441 168.745 15.2563 168.5451 12.5597 168.8401 C 12.9755 167.9689 13.4586 166.482 12.9557 164.9238 C 12.4686 163.4111 11.1737 162.2093 9.1067 161.3401 L 31.4561 157.8297 C 31.4621 157.8317 33.834 157.7069 35.909 158.4157 C 37.6652 159.0176 38.673 160.0234 38.9066 161.4054 C 39.4491 164.6288 30.3593 172.6138 26.1974 175.9183 L 26.1974 175.9183 Z " stroke-width="1.9799313242126004"/>
          <path id="Shadow_6_" fill="#E87528" d="M 15.4603 168.6658 C 15.4603 168.6658 47.0738 151.0722 26.4014 175.2075 C 26.4014 175.2075 23.6493 168.9628 15.4603 168.6658 Z " stroke-width="1.9799313242126004"/>
          <path id="Shadow_3_" fill="#E87528" d="M 10.4352 161.5401 C 10.4352 161.5401 13.7061 163.9675 13.0646 167.8501 C 13.0665 167.8481 49.5012 155.4142 10.4352 161.5401 Z " stroke-width="1.9799313242126004"/>
          <path id="Outline_15_" d="M 35.7704 158.8276 C 37.3841 159.38 38.273 160.2511 38.479 161.4807 C 38.9244 164.112 31.672 170.9725 26.3994 175.2095 C 25.7104 173.4751 23.9661 170.4557 19.8161 169.0381 C 17.9075 168.3847 15.6979 168.155 13.2289 168.351 C 13.5655 167.4046 13.7971 166.1276 13.3675 164.7971 C 12.9458 163.4943 11.9895 162.4112 10.5144 161.5579 L 31.4383 158.2692 C 31.4641 158.2653 33.7707 158.1445 35.7704 158.8276 M 36.0496 158.0118 C 33.8558 157.2614 31.3888 157.4079 31.3888 157.4079 L 7.3426 161.1837 C 7.6059 161.2589 7.8554 161.3381 8.0949 161.4193 C 15.591 163.9833 11.7637 169.3806 11.7637 169.3806 C 15.0465 168.9054 17.5808 169.1826 19.5389 169.8518 C 25.0194 171.7248 25.9519 176.6608 25.9519 176.6608 C 25.9519 176.6608 40.0649 165.686 39.3323 161.3361 C 39.0274 159.5285 37.6078 158.5444 36.0496 158.0118 L 36.0496 158.0118 Z " stroke-width="1.9799313242126004"/>
        </g>
        <g id="L_Skate_1_">
          <g id="Blade_4_">
            <path id="Blade_5_" fill="#B7B7B7" d="M 22.3267 179.1516 C 22.3267 179.1516 20.1705 181.375 14.0367 179.9633 L 11.9202 184.8221 C 11.9202 184.8221 24.1423 185.5071 32.4798 175.4451 L 33.6657 171.9783 L 36.8633 168.553 L 35.81 172.7128 C 35.81 172.7128 38.0751 169.8479 39.1521 169.1588 C 40.051 168.5847 41.0232 169.5152 37.9305 173.4375 C 36.901 174.7403 22.685 196.4403 1.5889 183.9093 L 8.2929 184.1152 L 9.172 177.3756 C 9.172 177.3756 3.7569 174.0572 6.7248 169.3747 C 6.7209 169.3727 9.0473 178.0289 22.3267 179.1516 Z " stroke-width="1.9799313242126004"/>
            <path id="Blade_Outline_2_" d="M 7.0159 186.9228 C 5.1429 186.2833 3.2441 185.3923 1.3671 184.2816 L 7.9128 183.6717 L 8.7067 177.5834 C 8.0177 177.1043 6.0576 175.5679 5.5309 173.3028 C 5.2102 171.9169 5.4893 170.5151 6.3585 169.141 L 6.8832 168.3174 L 7.1386 169.2618 C 7.1564 169.3153 8.7641 174.9185 16.3532 177.5141 C 18.1589 178.1319 20.1804 178.5398 22.3643 178.7219 L 23.2711 178.7971 L 22.6395 179.4525 C 22.5465 179.5475 20.325 181.7472 14.2921 180.4603 L 12.5775 184.3964 C 15.1613 184.3627 25.1124 183.6678 32.0719 175.3045 L 33.2599 171.8357 L 36.5485 168.256 L 37.2811 168.6559 L 36.695 170.9705 C 37.4276 170.131 38.3245 169.1707 38.9205 168.7926 C 39.5461 168.3886 40.249 168.5827 40.4233 169.1866 C 40.74 170.2597 39.4273 172.2317 38.2691 173.6988 L 38.0335 174.0176 C 33.9132 179.6842 22.6494 192.2686 7.0159 186.9228 L 7.0159 186.9228 Z M 39.6194 169.434 C 39.6016 169.4321 39.5145 169.438 39.3818 169.5231 C 38.5483 170.0538 35.909 173.0078 35.2913 173.7859 L 35.5586 171.9486 L 36.0337 170.0755 L 34.0439 172.204 L 32.8144 175.7184 C 24.4373 185.8299 12.0211 185.2577 11.9004 185.2517 L 11.2806 185.2161 L 13.7892 179.4604 L 14.1416 179.5396 C 17.7035 180.3593 19.8676 179.9099 21.0021 179.4406 C 19.24 179.2169 17.5867 178.8427 16.078 178.3279 C 9.8571 176.2015 7.4574 172.2238 6.6555 170.4141 C 6.2655 171.315 6.1724 172.2139 6.3744 173.1009 C 6.9169 175.4511 9.3759 176.9855 9.3997 177.0033 L 9.6373 177.1498 L 8.6731 184.5528 L 4.0955 184.7765 C 5.4141 185.4695 5.9823 185.6596 7.2931 186.1071 C 22.3821 191.2668 33.3252 179.0209 37.3326 173.5167 L 37.5919 173.1682 C 39.8788 170.2716 39.5996 169.442 39.6194 169.434 L 39.6194 169.434 Z " stroke-width="1.9799313242126004"/>
          </g>
          <g id="Boot_4_">
            <g id="Boot_5_">
              <path id="Fill_6_" fill="#FFFFFF" d="M 37.788 167.4284 C 37.788 167.4284 28.9614 178.5041 23.8354 180.1692 C 18.7074 181.8344 8.9562 176.3935 6.3922 172.5564 C 3.8321 168.7193 6.4773 161.6608 8.6652 160.5857 C 10.855 159.5126 28.708 157.4376 28.708 157.4376 C 28.708 157.4376 38.9878 154.6222 40.4252 161.7222 C 40.4272 161.7242 39.8807 165.2901 37.788 167.4284 Z " stroke-width="1.9799313242126004"/>
              <path id="Outline_14_" d="M 16.7849 179.9772 C 12.3835 178.4724 7.7623 175.3857 6.0318 172.794 C 4.8162 170.9685 4.5746 168.2322 5.3666 165.2861 C 6.0279 162.831 7.2772 160.7857 8.4751 160.1997 C 10.7065 159.1047 27.9239 157.0971 28.5932 157.0238 C 28.7773 156.9743 33.2005 155.7884 36.7366 156.9961 C 38.9977 157.7703 40.3797 159.3305 40.847 161.7895 C 40.8252 161.938 40.2569 165.5197 38.1206 167.6977 C 37.7563 168.153 29.1535 178.8922 23.9661 180.5791 C 21.6713 181.3255 18.7965 180.6642 16.7849 179.9772 C 16.7868 179.9772 16.7868 179.9772 16.7849 179.9772 L 16.7849 179.9772 Z M 40.0015 161.8074 L 40.0015 161.8074 C 39.6016 159.8235 38.4077 158.4791 36.4614 157.8119 C 33.1787 156.6912 28.8664 157.8455 28.7575 157.8653 C 23.8136 158.4415 10.5976 160.1185 8.8552 160.9718 C 7.9009 161.445 6.7842 163.3537 6.2021 165.5118 C 5.4735 168.2184 5.6715 170.6972 6.7525 172.3188 C 8.3622 174.7304 12.8923 177.7359 17.064 179.1634 C 17.066 179.1634 17.066 179.1634 17.066 179.1634 C 19.7666 180.0881 22.0614 180.292 23.7008 179.7614 C 28.6486 178.1537 37.3623 167.27 37.4791 167.1294 C 39.4174 165.1455 39.9758 161.7975 40.0015 161.8074 L 40.0015 161.8074 Z " stroke-width="1.9799313242126004"/>
            </g>
            <g id="Laces_2_">
              <path id="Lace_5_" fill="#5BDDDD" stroke="#000000" stroke-width="0.4949828310531501" d="M 23.9265 158.0712 C 23.9265 158.0712 30.5256 159.3978 31.5512 163.7358 C 31.5512 163.7358 32.0462 165.9533 30.0385 165.1554 C 28.0328 164.3555 30.1415 161.2272 21.5347 158.386 L 23.9265 158.0712 Z "/>
              <path id="Lace_4_" fill="#5BDDDD" stroke="#000000" stroke-width="0.4949828310531501" d="M 17.6857 158.6375 C 17.6857 158.6375 25.5104 160.0353 26.4766 165.8306 C 26.4766 165.8306 26.9379 168.7965 24.5858 167.8362 C 22.2336 166.876 24.9382 162.53 14.8089 159.2037 L 17.6857 158.6375 Z "/>
            </g>
          </g>
        </g>
      </g>
      <path id="Left_Flipper_1_" fill="#303A82" stroke="#000000" stroke-width="0.9899656621063002" d="M 35.2734 78.874 C 35.2734 78.874 12.9715 68.8516 9.5878 63.7235 C 6.2021 58.5975 1.0385 54.3406 0.191 60.8685 C -0.6544 67.3983 0.496 88.5776 17.9787 102.0966 C 17.9807 102.0966 39.5838 95.8954 35.2734 78.874 Z "/>
      <path id="Right_Flipper_1_" fill="#303A82" stroke="#000000" stroke-width="0.9899656621063002" d="M 89.7711 83.8 C 89.7711 83.8 108.3131 99.7365 114.3955 100.6215 C 120.4739 101.5046 126.5206 104.3755 120.9708 107.9156 C 115.4171 111.4518 95.7564 119.4071 76.0897 109.3174 C 76.0897 109.3174 72.5298 87.1283 89.7711 83.8 Z "/>
      <g id="Body_2_">
        <g id="Body_3_">
          <g id="Body_Base_1_">
            <path id="ID0.9607957485131919" fill="#303A82" d="M 97.5304 107.2523 C 95.0159 79.8105 81.2039 81.1747 79.6714 69.8811 C 78.137 58.5876 78.3607 32.9237 56.7121 33.1494 C 35.0656 33.3751 34.9329 59.2192 33.636 70.5404 C 32.3392 81.8617 18.541 80.9192 16.6007 108.4066 C 14.6604 135.894 26.4687 151.6562 30.0583 157.5327 C 33.6479 163.4131 41.5597 160.4966 42.5952 158.4197 C 43.6307 156.3427 45.9968 151.5454 45.9968 151.5454 C 48.6776 153.8757 56.7141 154.1747 57.6922 154.1886 C 57.6922 154.1886 66.7999 153.8975 69.4332 151.5097 C 69.4332 151.5097 71.8962 156.2576 72.9753 158.3128 C 74.0583 160.3699 82.0236 163.12 85.4924 157.1684 C 88.9573 151.2167 100.0469 134.6882 97.5304 107.2523 Z " stroke-width="1.9799313242126004"/>
            <path id="Outline_13_" d="M 98.0254 107.2068 C 96.4593 90.1457 90.6086 84.1366 85.9062 79.3096 C 83.0136 76.3416 80.7287 73.9974 80.1644 69.8158 C 79.9862 68.5071 79.8318 67.0043 79.6655 65.3708 C 78.4082 53.1349 76.3095 32.6545 56.9973 32.6545 L 56.7102 32.6564 C 36.6792 32.8643 34.6913 54.1704 33.5034 66.8993 C 33.3806 68.2041 33.2678 69.4099 33.143 70.487 C 32.6639 74.6805 30.4365 77.0901 27.6131 80.1431 C 23.0256 85.1068 17.3155 91.2862 16.1057 108.3749 C 14.3139 133.7438 24.3165 149.4348 28.5912 156.1349 C 28.9852 156.7546 29.3396 157.309 29.6346 157.794 C 31.5056 160.8629 34.3251 161.5064 36.3585 161.5064 C 39.4511 161.5064 42.3596 159.9977 43.0368 158.6454 C 43.8604 156.9922 45.5275 153.6164 46.173 152.3057 C 49.5606 154.5509 57.5992 154.6875 57.7041 154.6895 C 58.0644 154.6776 66.0099 154.3985 69.2233 152.2918 L 69.2233 152.3057 C 69.2392 152.2977 69.255 152.2819 69.2649 152.274 C 69.9381 153.5689 71.6705 156.913 72.5318 158.5484 C 73.2248 159.865 76.0165 161.2728 79.0675 161.2728 C 82.0374 161.2728 84.4668 159.9066 85.9161 157.4238 L 86.6388 156.2002 C 90.759 149.2863 100.3993 133.1043 98.0254 107.2068 Z M 85.7934 155.6913 L 85.0667 156.9229 C 83.4472 159.6987 80.9128 160.2808 79.0735 160.2808 C 76.3234 160.2808 73.8841 158.982 73.4168 158.0871 C 72.4922 156.3289 70.5677 152.6225 70.0252 151.583 C 70.9498 150.5059 71.8883 148.7497 71.8883 148.7497 L 69.5876 150.7376 L 69.5758 150.7158 L 69.1006 151.1474 C 66.6336 153.3847 57.7655 153.6956 57.7001 153.6976 C 57.615 153.6956 49.0102 153.5134 46.3215 151.1771 L 45.8364 150.7554 L 43.5159 148.7497 C 43.5159 148.7497 44.4781 150.5435 45.4107 151.6166 C 44.8999 152.6522 43.0447 156.42 42.1537 158.2019 C 41.6825 159.1443 39.1917 160.5145 36.3604 160.5145 C 34.5805 160.5145 32.1135 159.9522 30.48 157.2773 C 30.1811 156.7862 29.8247 156.2279 29.4247 155.6003 C 25.2055 148.9814 15.3237 133.4844 17.0937 108.4423 C 18.2777 91.7 23.8572 85.6651 28.3397 80.8123 C 31.1691 77.7533 33.6103 75.1121 34.129 70.5959 C 34.2518 69.5148 34.3647 68.2992 34.4894 66.9884 C 35.6457 54.5921 37.582 33.8424 56.7201 33.6424 L 56.9973 33.6405 C 75.4166 33.6405 77.3806 52.7943 78.6795 65.4698 C 78.8458 67.1152 79.0042 68.6278 79.1824 69.9465 C 79.7942 74.4528 82.2988 77.0227 85.1954 79.9986 C 89.7889 84.7148 95.5089 90.5833 97.0394 107.2939 C 99.3816 132.8746 89.8621 148.8626 85.7934 155.6913 Z " stroke-width="1.9799313242126004"/>
          </g>
          <path id="Tummy_Fill_1_" fill="#FFFFFF" d="M 78.3488 74.336 C 75.5453 69.8811 74.8919 69.2693 74.9691 67.3231 C 76.7015 23.1052 57.3121 46.706 57.3121 46.706 C 57.3121 46.706 35.5091 24.6734 38.7918 67.1587 C 38.9403 69.0852 38.7185 69.8811 35.9149 74.336 C 33.1074 78.7908 19.5766 97.9308 24.6927 116.7402 C 29.8088 135.5495 49.034 141.7704 56.9517 141.8061 C 64.1606 141.8397 84.4549 135.5495 89.5711 116.7402 C 94.6872 97.9308 81.1564 78.7908 78.3488 74.336 Z " stroke-width="1.9799313242126004"/>
        </g>
        <g id="L_Eye_1_">
          <path id="White_3_" fill="#FFFFFF" stroke="#000000" stroke-width="0.4950037329515676" d="M 46.2566 45.6542 C 47.3991 45.8566 48.2929 46.8495 48.8094 48.2924 C 49.3282 49.7336 49.4719 51.6231 49.1185 53.6176 C 48.765 55.6121 47.9807 57.3372 46.9983 58.5124 C 46.0175 59.6899 44.8369 60.3151 43.6944 60.1127 C 42.5519 59.9102 41.6581 58.9173 41.1416 57.4745 C 40.6228 56.0333 40.4791 54.1437 40.8325 52.1492 C 41.186 50.1548 41.9702 48.4297 42.9527 47.2545 C 43.9335 46.077 45.1141 45.4517 46.2566 45.6542 Z "/>
          <path id="Iris_3_" fill="#5BDDDD" stroke="#000000" stroke-width="0.4949643865268019" d="M 45.1081 50.2739 C 46.0303 50.3817 46.7998 51.0298 47.3015 51.9894 C 47.8033 52.9491 48.0333 54.2218 47.8749 55.5767 C 47.7165 56.9316 47.1992 58.1169 46.4896 58.935 C 45.7801 59.753 44.8819 60.2062 43.9596 60.0984 C 43.0374 59.9906 42.2679 59.3425 41.7662 58.3828 C 41.2644 57.4232 41.0344 56.1505 41.1928 54.7956 C 41.3512 53.4407 41.8685 52.2553 42.5781 51.4373 C 43.2876 50.6192 44.1858 50.1661 45.1081 50.2739 Z "/>
          <path id="Pupil_3_" d="M 44.8682 52.2312 C 45.4524 52.2985 45.9371 52.727 46.2522 53.3652 C 46.5672 54.0034 46.7085 54.8528 46.6042 55.7576 C 46.4999 56.6623 46.1691 57.4573 45.7171 58.007 C 45.2651 58.5568 44.6956 58.8639 44.1115 58.7965 C 43.5273 58.7292 43.0426 58.3007 42.7275 57.6625 C 42.4124 57.0243 42.2712 56.1749 42.3755 55.2701 C 42.4797 54.3654 42.8105 53.5704 43.2625 53.0207 C 43.7145 52.4709 44.284 52.1638 44.8682 52.2312 Z " stroke-width="1.9798855485406577"/>
          <path id="Highlight_3_" fill="#FFFFFF" d="M 43.5159 51.539 C 43.8386 51.539 44.1297 51.6697 44.3396 51.8816 C 44.5514 52.0914 44.6821 52.3825 44.6821 52.7052 C 44.6821 53.0279 44.5514 53.319 44.3396 53.5289 C 44.1297 53.7407 43.8386 53.8714 43.5159 53.8714 C 43.1932 53.8714 42.9021 53.7407 42.6923 53.5289 C 42.4804 53.319 42.3497 53.0279 42.3497 52.7052 C 42.3497 52.3825 42.4804 52.0914 42.6923 51.8816 C 42.9021 51.6697 43.1932 51.539 43.5159 51.539 Z " stroke-width="1.9799313242126004"/>
        </g>
        <g id="R_Eye_2_">
          <path id="White_2_" fill="#FFFFFF" stroke="#000000" stroke-width="0.49497021992879453" d="M 67.9118 44.4102 C 69.0645 44.2619 70.2121 44.9427 71.1379 46.165 C 72.0634 47.3854 72.765 49.1456 73.0234 51.1545 C 73.2819 53.1633 73.0487 55.0438 72.4622 56.4587 C 71.876 57.8756 70.9381 58.8246 69.7854 58.9729 C 68.6327 59.1212 67.4851 58.4405 66.5593 57.2181 C 65.6338 55.9978 64.9322 54.2375 64.6738 52.2287 C 64.4153 50.2198 64.6485 48.3393 65.235 46.9244 C 65.8213 45.5076 66.7591 44.5585 67.9118 44.4102 Z "/>
          <path id="Iris_2_" fill="#5BDDDD" stroke="#000000" stroke-width="0.49495865324621174" d="M 68.1338 49.2748 C 69.0462 49.1021 69.976 49.4903 70.7416 50.2561 C 71.5072 51.022 72.107 52.1678 72.3607 53.5081 C 72.6145 54.8484 72.475 56.1342 72.0423 57.1268 C 71.6097 58.1195 70.886 58.8207 69.9737 58.9935 C 69.0614 59.1662 68.1315 58.778 67.3659 58.0122 C 66.6003 57.2463 66.0005 56.1005 65.7468 54.7602 C 65.493 53.4199 65.6325 52.1341 66.0652 51.1414 C 66.4979 50.1487 67.2215 49.4475 68.1338 49.2748 Z "/>
          <path id="Pupil_2_" d="M 68.4552 51.1831 C 69.0328 51.0729 69.6234 51.3372 70.1147 51.8522 C 70.606 52.3672 70.9945 53.1356 71.1652 54.0303 C 71.3359 54.9249 71.2576 55.7824 70.9904 56.4421 C 70.7232 57.1018 70.2713 57.565 69.6937 57.6752 C 69.1161 57.7854 68.5255 57.5211 68.0341 57.0061 C 67.5428 56.4911 67.1544 55.7227 66.9837 54.828 C 66.813 53.9334 66.8913 53.0759 67.1585 52.4162 C 67.4257 51.7565 67.8775 51.2933 68.4552 51.1831 Z " stroke-width="1.979963064876065"/>
          <path id="Highlight_2_" fill="#FFFFFF" d="M 67.3008 51.147 C 67.6235 51.147 67.9146 51.2777 68.1245 51.4895 C 68.3363 51.6994 68.467 51.9905 68.467 52.3132 C 68.467 52.6359 68.3363 52.927 68.1245 53.1368 C 67.9146 53.3487 67.6235 53.4794 67.3008 53.4794 C 66.9781 53.4794 66.687 53.3487 66.4772 53.1368 C 66.2653 52.927 66.1346 52.6359 66.1346 52.3132 C 66.1346 51.9905 66.2653 51.6994 66.4772 51.4895 C 66.687 51.2777 66.9781 51.147 67.3008 51.147 Z " stroke-width="1.9799313242126004"/>
        </g>
        <g id="Beak_1_">
          <path id="Bottom_Beak_1_" fill="#DD5900" stroke="#000000" stroke-width="0.4949828310531501" d="M 63.4103 60.4151 C 61.0244 62.5712 57.2645 65.4857 51.2258 60.7437 L 51.1881 60.7437 C 51.1881 60.7437 51.1367 65.4421 57.2645 65.4857 C 63.1548 65.5292 63.5805 60.9952 63.4103 60.4151 L 63.4103 60.4151 Z "/>
          <g id="Top_Beak_2_">
            <path id="Fill_5_" fill="#FF822E" d="M 57.3121 63.7532 C 60.7354 63.7097 63.2162 60.7022 64.4537 60.0844 C 64.9566 59.8369 65.2318 59.6607 65.2318 59.6607 C 63.0044 58.4569 63.4182 58.1421 61.0244 56.4374 C 58.6307 54.7327 55.7162 55.392 54.0947 56.4374 C 52.4236 57.5145 49.3923 60.0844 49.3923 60.0844 C 49.6953 60.229 50.0299 60.2705 50.2892 60.4646 C 52.0336 61.7733 55.2609 63.781 57.3121 63.7532 Z " stroke-width="1.9799313242126004"/>
            <path id="Outline_12_" d="M 65.3248 58.6252 C 65.511 58.9757 65.5149 59.3221 65.4991 59.5241 L 65.3526 59.4449 C 64.1309 58.7856 63.7369 58.4134 63.1885 57.8946 C 62.7648 57.4947 62.2362 56.9957 61.169 56.2374 C 59.1197 54.7782 56.0865 54.8614 53.96 56.2315 C 52.4652 57.1957 49.9586 59.2865 49.3706 59.7795 C 49.3607 59.5716 49.3785 59.2588 49.5468 58.94 C 49.5468 58.94 47.6896 59.6449 48.0004 61.7218 L 49.5171 60.3973 C 49.5705 60.4171 49.626 60.4408 49.6794 60.4586 C 49.8537 60.516 50.016 60.5695 50.1408 60.6645 C 52.1959 62.2029 55.2945 64.0007 57.2725 64.0007 L 57.316 64.0007 C 59.8919 63.9671 61.9609 62.3059 63.3271 61.2051 C 63.8241 60.8071 64.2537 60.4626 64.5665 60.3062 C 64.8952 60.1418 65.0892 60.031 65.216 59.9577 L 66.8712 61.405 C 67.182 59.3301 65.3248 58.6252 65.3248 58.6252 Z M 64.3468 59.8647 C 63.9825 60.0448 63.5587 60.3874 63.0162 60.821 C 61.6244 61.9416 59.7137 63.476 57.3101 63.5057 L 57.2705 63.7532 L 57.2705 63.5057 C 55.4153 63.5057 52.4315 61.7614 50.4377 60.2686 C 50.2793 60.1498 50.1051 60.0884 49.9329 60.029 L 49.9487 60.0151 L 49.9071 60.0151 C 49.8952 60.0131 49.8873 60.0052 49.8754 60.0013 C 50.7031 59.3142 52.9107 57.4967 54.2293 56.6453 C 56.1855 55.3841 58.993 55.293 60.8799 56.6393 C 61.9194 57.3798 62.4104 57.8431 62.846 58.253 C 63.339 58.7183 63.7409 59.0964 64.7269 59.6627 C 64.622 59.7221 64.4933 59.7894 64.3468 59.8647 Z " stroke-width="1.9799313242126004"/>
          </g>
        </g>
      </g>
      <g id="Hat_1_">
        <g id="Hat_Base_1_">
          <path id="Fill_4_" fill="#AF2020" d="M 40.3381 35.2897 C 40.3381 35.2897 39.4551 26.3504 49.9645 20.7531 C 60.476 15.1538 66.3188 9.5269 67.1226 8.4716 C 67.7344 7.6697 69.0214 4.7374 70.4905 6.3115 C 71.9675 7.8835 71.9675 13.8748 70.4905 20.0641 C 69.0214 26.2514 72.4783 30.0845 72.0764 34.7017 C 72.0764 34.7017 57.2348 27.9224 40.3381 35.2897 Z " stroke-width="1.9799313242126004"/>
          <g id="Stripes_7_">
            <path id="ID0.4963077115826309" fill="#871212" d="M 41.0529 30.5735 C 41.0529 30.5735 55.4588 22.6974 71.6091 30.5735 L 70.7617 27.7264 C 70.7617 27.7264 58.3218 21.2144 42.3477 27.7284 L 41.0529 30.5735 Z " stroke-width="1.9799313242126004"/>
            <path id="ID0.9561287104152143" fill="#871212" d="M 47.3312 22.1984 C 47.3312 22.1984 60.9789 18.4168 69.6629 24.02 L 70.1816 21.7035 C 70.1816 21.7035 60.7373 16.3517 51.1881 19.5216 L 47.3312 22.1984 Z " stroke-width="1.9799313242126004"/>
            <path id="ID0.20460291113704443" fill="#871212" d="M 60.8858 14.5104 C 60.8858 14.5104 68.0017 14.5658 70.2866 18.7138 L 71.1676 16.6111 C 71.1676 16.6111 69.7678 12.5483 62.7569 12.6294 L 60.6463 14.6866 " stroke-width="1.9799313242126004"/>
            <path id="ID0.16744692157953978" fill="#871212" d="M 67.1226 8.4716 C 67.1226 8.4716 70.5954 9.0814 71.5042 11.2257 L 71.1676 8.4716 L 67.7918 6.5827 L 67.1226 8.4716 Z " stroke-width="1.9799313242126004"/>
          </g>
          <path id="Outline_11_" d="M 39.9124 36.0144 L 39.8451 35.3373 C 39.8372 35.2462 39.0531 26.0039 49.7329 20.3155 C 60.3592 14.6549 66.1129 8.9804 66.7286 8.1726 C 66.8336 8.0399 66.9524 7.842 67.0929 7.6182 C 67.681 6.6659 68.4927 5.3591 69.6134 5.3591 C 70.0549 5.3591 70.4727 5.565 70.8548 5.9729 C 72.6922 7.9291 72.3041 14.5995 70.9756 20.1789 C 70.1559 23.6319 70.9221 26.3127 71.6646 28.9064 C 72.2209 30.8606 72.7516 32.704 72.5734 34.7433 L 72.512 35.4422 L 71.8745 35.1531 C 71.8131 35.1254 65.6258 32.3515 56.8666 32.3515 C 51.1961 32.3515 45.7017 33.4939 40.5401 35.7431 L 39.9124 36.0144 L 39.9124 36.0144 Z M 69.6134 6.3491 C 69.0412 6.3491 68.3225 7.5133 67.9304 8.1389 C 67.772 8.3944 67.6334 8.6181 67.5166 8.7705 C 66.8435 9.6556 61.1215 15.3697 50.1982 21.1887 C 41.6746 25.7267 40.843 32.3911 40.8113 34.5492 C 45.9037 32.4327 51.301 31.3596 56.8626 31.3596 C 64.2676 31.3596 69.7678 33.2425 71.6151 33.9711 C 71.619 32.3634 71.1736 30.8111 70.7103 29.1777 C 69.9678 26.5879 69.1283 23.6537 70.0094 19.9492 C 71.5874 13.3343 71.3003 7.8954 70.1301 6.65 C 69.946 6.4501 69.7718 6.3491 69.6134 6.3491 L 69.6134 6.3491 Z " stroke-width="1.9799313242126004"/>
        </g>
        <path id="Puff_1_" fill="#FFFFFF" stroke="#000000" stroke-width="0.9899656621063002" d="M 70.2866 0.7875 C 71.2686 0.7875 72.1596 1.1676 72.805 1.7794 C 73.4485 2.3912 73.8485 3.2386 73.8485 4.1712 C 73.8485 5.1037 73.4485 5.9511 72.805 6.5629 C 72.1596 7.1747 71.2686 7.5549 70.2866 7.5549 C 69.3045 7.5549 68.4135 7.1747 67.7681 6.5629 C 67.1246 5.9511 66.7247 5.1037 66.7247 4.1712 C 66.7247 3.2386 67.1246 2.3912 67.7681 1.7794 C 68.4135 1.1676 69.3045 0.7875 70.2866 0.7875 Z "/>
        <g id="Brim_1_">
          <path id="Brim_Fill_1_" fill="#FFFFFF" d="M 38.9007 38.0418 C 38.9007 38.0418 37.5128 36.5609 38.9007 35.2897 C 40.2886 34.0206 47.8658 30.4785 56.1538 30.5755 C 64.4398 30.6725 67.1662 31.6566 69.2926 32.6386 C 71.4151 33.6207 75.5651 36.1748 73.7831 38.4339 C 73.7831 38.4339 76.2996 42.5878 74.0544 42.5878 C 73.5475 42.5878 72.017 41.97 72.017 41.97 C 72.017 41.97 59.4346 34.8977 40.6707 41.97 C 40.6688 41.972 34.8636 44.3598 38.9007 38.0418 Z " stroke-width="1.9799313242126004"/>
          <path id="Brim_Outline_1_" d="M 74.3276 38.4378 C 74.6602 37.9112 74.7533 37.341 74.6107 36.741 C 74.0702 34.4879 70.2727 32.6307 69.5183 32.2822 C 67.3365 31.2744 64.5151 30.2825 56.2231 30.1835 L 55.8786 30.1815 C 47.6302 30.1815 40.148 33.6741 38.6968 35.0007 C 38.2255 35.4343 37.9761 35.9372 37.9543 36.4935 C 37.9285 37.1548 38.2433 37.7251 38.4651 38.0418 C 37.3464 39.5169 36.992 40.8157 37.4058 41.9067 C 38.1087 43.75 41.1558 42.2353 41.1558 42.2353 C 46.5511 40.2356 51.9465 39.2219 57.1992 39.2219 C 65.305 39.2219 70.6172 41.6711 71.6883 42.2116 C 71.6883 42.2116 73.401 42.9758 74.0464 42.956 C 74.781 42.9323 75.0859 42.4452 75.2344 41.7918 C 75.5294 40.495 74.6919 39.01 74.3276 38.4378 Z M 74.4662 41.6156 C 74.1296 42.6293 72.2704 41.6275 72.2704 41.6275 C 72.0388 41.4968 66.4811 38.4339 57.1972 38.4339 C 51.7603 38.4339 46.171 39.4991 40.5915 41.6037 L 40.3084 41.7107 C 40.3084 41.7107 38.5205 42.6234 38.1384 41.6235 C 37.8078 40.7544 38.1879 39.6317 39.267 38.2893 L 39.4808 38.022 C 39.4808 38.022 40.0649 37.2796 41.2924 36.6915 C 41.2924 36.6915 40.2609 36.6995 39.0769 37.5389 C 38.9225 37.3113 38.7205 36.941 38.7363 36.5232 C 38.7522 36.1787 38.9106 35.8699 39.2274 35.5808 C 40.4411 34.4681 47.7629 30.9656 55.8746 30.9656 L 56.2092 30.9676 C 64.3428 31.0646 67.0771 32.0229 69.1857 32.995 C 71.2666 33.9553 73.5138 35.5432 73.8425 36.9212 C 73.9316 37.2816 73.8465 37.6142 73.6683 37.9389 C 72.5556 37.2142 71.6032 37.2043 71.6032 37.2043 C 72.8327 37.7924 73.4168 38.5368 73.4168 38.5368 L 73.4366 38.5349 L 73.5297 38.6655 C 73.8702 39.1348 74.8067 40.5979 74.4662 41.6156 Z " stroke-width="1.9799313242126004"/>
        </g>
      </g>
      <g id="Scarf_1_">
        <g id="Bottom_1_">
          <g id="Fringe_1_">
            <path id="ID0.8003017934970558" fill="#871212" d="M 14.4664 145.6986 C 14.2268 145.6947 13.4269 145.6392 13.217 145.0651 C 13.0071 144.4929 13.5615 144.0117 13.7437 143.8533 C 13.9298 143.7524 17.1393 142.5941 20.0062 139.6123 C 19.628 139.4124 19.2657 139.2104 18.9192 139.0084 C 17.7867 140.632 14.2684 142.8079 11.3499 143.7009 C 11.342 143.7009 11.3341 143.7009 11.3262 143.7009 C 10.9025 143.7009 10.1323 143.594 9.958 143.0198 C 9.7799 142.4357 10.36 141.9863 10.552 141.8358 C 10.7441 141.7447 14.0684 140.7468 17.1155 137.8621 C 16.6938 137.569 16.2978 137.274 15.9315 136.983 C 14.9079 138.4283 11.1044 140.537 8.0256 141.2972 C 7.6059 141.2755 6.8179 141.1309 6.6733 140.537 C 6.5288 139.945 7.1327 139.5292 7.3327 139.3926 C 7.5346 139.3114 11.0866 138.4659 14.3614 135.5752 C 14.0763 135.2862 13.807 134.9931 13.5516 134.6922 C 12.3201 136.0425 8.483 137.7848 5.4319 138.2976 C 5.0181 138.2482 4.242 138.0462 4.143 137.4423 C 4.044 136.8404 4.6776 136.4702 4.8855 136.3474 C 5.0953 136.2821 8.7919 135.6921 12.3161 132.9716 C 12.0865 132.5855 11.9043 132.2272 11.7657 131.9144 C 10.2828 133.2647 6.7565 134.809 3.9153 135.2862 C 3.4995 135.2367 2.7214 135.0347 2.6224 134.4308 C 2.5214 133.8309 3.157 133.4607 3.3649 133.3379 C 3.5787 133.2706 7.4297 132.6529 11.0213 129.78 L 11.1024 129.7166 C 11.1935 129.1444 11.8548 128.6039 12.1498 128.3901 L 12.7042 127.9862 L 12.9121 128.6395 C 14.9356 134.9793 23.4077 138.8322 23.4929 138.8699 L 24.2571 139.2124 L 22.196 140.7706 L 21.9426 140.634 C 20.917 142.2496 17.5154 144.6196 14.6445 145.667 L 14.5594 145.7006 L 14.4664 145.6986 Z " stroke-width="1.9799313242126004"/>
            <path id="ID0.6091966386884451" d="M 12.4389 128.792 C 14.5554 135.4248 23.2889 139.3233 23.2889 139.3233 L 22.1505 140.1845 L 21.7268 139.9549 C 21.7188 139.9846 21.7208 140.0004 21.7109 140.034 C 21.3308 141.2854 17.6362 144.0474 14.4763 145.2037 C 14.4763 145.2037 12.9715 145.1799 14.0704 144.2256 C 14.0704 144.2256 17.7174 142.9465 20.814 139.4717 C 20.0616 139.0956 19.3746 138.7095 18.743 138.3273 C 18.7311 138.3709 18.7291 138.4046 18.7113 138.4541 C 18.2658 139.6816 14.4268 142.2437 11.2074 143.2277 C 11.2074 143.2277 9.7066 143.1227 10.8569 142.2278 C 10.8569 142.2278 14.603 141.1408 17.8956 137.7947 C 17.0838 137.2562 16.3671 136.7177 15.7533 136.191 C 15.7315 136.2722 15.7117 136.3553 15.6662 136.4642 C 15.1514 137.6641 11.1797 140.0103 7.9108 140.8161 C 7.9108 140.8161 6.4199 140.626 7.6178 139.8004 C 7.6178 139.8004 11.5321 138.9055 15.0425 135.6307 C 15.0425 135.6307 15.0682 135.6228 15.1098 135.6129 C 14.4545 134.9951 13.9298 134.3972 13.5001 133.8369 C 13.4744 133.9062 13.4586 133.9695 13.413 134.0547 C 12.8091 135.2109 8.6731 137.2503 5.3527 137.8106 C 5.3527 137.8106 3.8797 137.5116 5.1349 136.7751 C 5.1349 136.7751 9.1027 136.1791 12.8527 133.1795 C 12.8527 133.1795 12.92 133.1617 13.0151 133.1538 C 12.429 132.2648 12.1003 131.5005 11.9241 130.964 C 11.9083 130.9937 11.9063 131.0115 11.8905 131.0452 C 11.2866 132.2014 7.1525 134.2408 3.8321 134.7991 C 3.8321 134.7991 2.3551 134.5021 3.6143 133.7676 C 3.6143 133.7676 7.5821 133.1676 11.3301 130.17 C 11.3301 130.17 11.4529 130.1423 11.5955 130.1423 C 11.637 130.1423 11.6786 130.1443 11.7202 130.1502 C 11.7162 130.1106 11.7103 130.0889 11.7103 130.0889 C 11.1915 129.7008 12.4389 128.792 12.4389 128.792 M 12.9636 127.1823 L 11.8548 127.9901 C 11.4668 128.2752 10.8589 128.7999 10.6589 129.4335 C 7.1941 132.1836 3.4995 132.7796 3.4619 132.7855 L 3.2758 132.8152 L 3.1134 132.9122 C 2.173 133.4607 2.0601 134.0863 2.1314 134.514 C 2.2838 135.4287 3.3213 135.7079 3.6341 135.7713 L 3.8123 135.8089 L 3.9925 135.7772 C 6.4654 135.3614 9.7898 134.0448 11.5974 132.7083 C 11.6192 132.7499 11.643 132.7954 11.6667 132.837 C 8.3622 135.2545 5.0201 135.7911 4.9845 135.797 L 4.7983 135.8267 L 4.634 135.9217 C 3.6955 136.4722 3.5827 137.0978 3.6539 137.5255 C 3.8064 138.4402 4.8419 138.7214 5.1547 138.7847 L 5.3349 138.8223 L 5.5171 138.7907 C 8.182 138.3392 11.839 136.8444 13.5199 135.407 C 13.5615 135.4525 13.6031 135.498 13.6447 135.5436 C 10.5738 138.0878 7.4297 138.8303 7.396 138.8382 L 7.2099 138.8797 L 7.0535 138.9847 C 6.1586 139.6024 6.0912 140.234 6.1942 140.6557 C 6.414 141.5566 7.4673 141.7586 7.7841 141.7982 L 7.9662 141.8219 L 8.1444 141.7784 C 10.847 141.1111 14.5119 139.2619 16.0048 137.668 C 16.1117 137.7492 16.2206 137.8304 16.3314 137.9116 C 13.4982 140.4102 10.6114 141.2695 10.5797 141.2774 L 10.3976 141.3309 L 10.2471 141.4477 C 9.3878 142.1169 9.3581 142.7505 9.4848 143.1643 C 9.7541 144.0513 10.8173 144.1939 11.1361 144.2157 L 11.3183 144.2275 L 11.4925 144.1761 C 12.1241 143.982 12.8072 143.7207 13.5001 143.4079 L 13.417 143.4791 C 12.5953 144.1919 12.6013 144.8275 12.7498 145.2333 C 13.0685 146.1045 14.1357 146.1877 14.4565 146.1936 L 14.6406 146.1956 L 14.8128 146.1342 C 17.3788 145.1938 20.7447 143.0178 22.1049 141.2873 L 22.2376 141.3586 L 22.7464 140.9765 L 23.8849 140.1152 L 25.2213 139.1055 L 23.6928 138.4204 C 23.6097 138.3808 15.3355 134.615 13.3813 128.4891 L 12.9636 127.1823 L 12.9636 127.1823 Z M 13.811 143.2653 C 15.9157 142.2793 18.054 140.8815 19.0836 139.6717 C 19.1192 139.6935 19.1548 139.7133 19.1885 139.7311 C 16.7631 142.0694 14.2545 143.095 13.811 143.2653 L 13.811 143.2653 Z " stroke-width="1.9799313242126004"/>
          </g>
          <path id="ID0.301447163335979" fill="#AF2020" d="M 50.1685 83.7783 C 50.1685 83.7783 38.1562 85.3741 31.0423 96.0598 C 23.9304 106.7415 29.1693 114.8275 11.5103 129.0771 C 11.5103 129.0771 11.2331 135.3753 22.6593 140.8141 C 22.6593 140.8141 37.5128 127.9129 38.964 114.0376 C 40.4173 100.1602 50.2694 90.4526 56.3102 89.1399 L 62.7034 86.7937 L 50.1685 83.7783 Z " stroke-width="1.9799313242126004"/>
          <g id="Stripes_6_">
            <path id="ID0.7702099848538637" fill="#871212" d="M 16.082 125.1885 C 16.082 125.1885 17.2957 133.2548 27.5695 135.9495 L 29.4168 133.6607 C 29.4168 133.6607 18.9806 126.919 18.4401 122.7314 L 16.082 125.1885 Z " stroke-width="1.9799313242126004"/>
            <path id="ID0.29858202300965786" fill="#871212" d="M 21.9545 118.1994 C 21.9545 118.1994 23.8096 124.2144 33.84 127.4179 L 35.911 124.0322 C 35.911 124.0322 26.1618 121.0564 23.6612 115.0077 L 21.9545 118.1994 Z " stroke-width="1.9799313242126004"/>
            <path id="ID0.94218366779387" fill="#871212" d="M 25.3995 110.739 C 25.3995 110.739 28.7674 116.5164 38.5898 116.7283 L 39.1521 112.9822 C 39.1521 112.9822 28.6961 111.9646 26.1638 108.2443 L 25.3995 110.739 Z " stroke-width="1.9799313242126004"/>
            <path id="ID0.9307069252245128" fill="#871212" d="M 28.2784 101.4175 C 28.2784 101.4175 31.0582 106.3653 40.6945 106.393 L 42.13 103.0866 C 42.13 103.0866 31.0344 100.6532 29.5039 98.6772 L 28.2784 101.4175 Z " stroke-width="1.9799313242126004"/>
            <path id="ID0.4161816337145865" fill="#871212" d="M 32.8381 93.6621 L 45.7255 96.9349 L 48.3707 93.3869 C 48.3707 93.3869 36.2436 90.4328 35.618 90.807 C 34.9903 91.1812 32.8381 93.6621 32.8381 93.6621 Z " stroke-width="1.9799313242126004"/>
            <path id="ID0.39353090059012175" fill="#871212" d="M 42.1794 86.9066 L 52.9661 90.4051 L 57.3616 88.7459 L 46.47 84.5881 L 42.1794 86.9066 " stroke-width="1.9799313242126004"/>
          </g>
          <path id="ID0.1931856549344957" d="M 22.7385 141.3982 L 22.4475 141.2616 C 10.8569 135.7435 11.0054 129.3266 11.0153 129.0553 L 11.0272 128.8316 L 11.1995 128.693 C 22.4772 119.5932 24.3125 113.0377 26.0905 106.6979 C 27.0607 103.2271 28.0665 99.6395 30.6285 95.7865 C 36.6871 86.6888 46.3215 84.0555 49.129 83.4654 C 49.7487 83.3348 50.1012 83.2892 50.1012 83.2892 L 64.4101 86.6947 L 56.4825 89.6052 C 50.2655 90.9615 40.8351 100.9146 39.459 114.087 C 38.0018 127.998 23.5978 140.6577 22.986 141.1883 L 22.7385 141.3982 L 22.7385 141.3982 Z M 12.0172 129.3048 C 12.1102 130.4017 13.0665 135.603 22.5781 140.2241 C 24.4927 138.4838 37.1603 126.5408 38.473 113.9861 C 39.954 99.8355 49.8992 90.0249 56.2053 88.6568 L 61.0007 86.8927 L 50.0972 84.2732 C 50.0833 84.297 49.7844 84.3425 49.3329 84.4356 C 46.6145 85.0078 37.3029 87.552 31.4561 96.335 C 28.9792 100.0573 28.0368 103.4132 27.0429 106.9652 C 25.2352 113.4139 23.3661 120.0862 12.0172 129.3048 L 12.0172 129.3048 Z " stroke-width="1.9799313242126004"/>
        </g>
        <g id="Middle_1_">
          <path id="Base_Fill_3_" fill="#AF2020" d="M 50.3823 87.3699 C 50.3823 87.3699 61.852 92.5692 73.009 90.217 C 84.1659 87.8648 87.7535 85.0157 91.8381 87.3699 C 91.8381 87.3699 94.0655 83.1645 86.7655 80.1946 C 86.7655 80.1946 89.2404 75.122 85.2806 73.0173 C 85.2786 73.0173 70.0589 66.9488 50.3823 87.3699 Z " stroke-width="1.9799313242126004"/>
          <g id="Stripes_5_">
            <path id="Stripe_21_" fill="#871212" d="M 65.507 75.7932 C 65.507 75.7932 71.326 79.9293 69.0847 90.8288 L 67.3028 90.8288 C 67.3028 90.8288 68.9382 81.5805 63.8736 76.7297 L 65.507 75.7932 Z " stroke-width="1.9799313242126004"/>
            <path id="Stripe_20_" fill="#871212" d="M 71.7913 73.2648 C 71.7913 73.2648 76.8421 77.3078 75.8937 89.0528 L 78.1291 88.4786 C 78.1291 88.4786 79.216 78.8324 74.389 72.5837 L 71.7913 73.2648 Z " stroke-width="1.9799313242126004"/>
            <path id="Stripe_19_" fill="#871212" d="M 58.797 79.8224 C 58.797 79.8224 62.5094 84.5247 61.5194 90.4328 L 60.2424 90.2328 C 60.2424 90.2328 59.2286 82.1686 57.4348 80.9648 L 58.797 79.8224 Z " stroke-width="1.9799313242126004"/>
            <path id="Stripe_18_" fill="#871212" d="M 85.2786 79.5749 C 85.144 79.2383 84.9816 73.8826 83.7085 72.5837 L 80.8851 72.1739 C 80.8851 72.1739 83.7461 74.7815 83.0888 79.3135 C 83.0888 79.3135 86.5002 82.3349 86.1042 86.3066 L 88.1851 86.3066 C 88.1871 86.3066 88.3099 81.6795 85.2786 79.5749 Z " stroke-width="1.9799313242126004"/>
          </g>
          <path id="Outline_10_" d="M 92.3786 84.3148 C 91.7451 82.5685 90.0779 81.0955 87.4209 79.9332 C 88.2406 77.8899 88.7078 74.2766 85.4647 72.556 C 85.3717 72.5204 83.2175 71.6789 79.4932 71.6789 C 72.7951 71.6789 62.25 74.3419 50.0259 87.0253 L 49.5389 87.5302 L 50.1784 87.8193 C 50.2556 87.8549 58.007 91.3218 66.8791 91.3218 C 69.061 91.3218 71.1557 91.1139 73.1119 90.7021 C 76.8817 89.9061 79.8021 89.0528 82.1483 88.3658 C 86.7002 87.0333 89.1632 86.4017 91.5886 87.7975 L 92.0341 88.0529 L 92.2737 87.5995 C 92.3054 87.5421 93.036 86.1284 92.3786 84.3148 Z M 91.5669 86.667 C 89.0266 85.4473 86.3854 86.0948 81.8731 87.4154 C 79.5447 88.0965 76.6441 88.9459 72.91 89.7319 C 71.0231 90.1299 68.9917 90.3318 66.8811 90.3318 C 59.7038 90.3318 53.271 88.0034 51.2475 87.1936 C 63.0103 75.2071 73.0842 72.6689 79.4972 72.6689 C 82.9819 72.6689 85.043 73.4529 85.0509 73.4529 C 87.9238 74.9794 86.9912 78.28 86.52 79.5075 C 85.3241 79.1234 82.4552 78.67 78.4775 81.1212 C 78.4775 81.1212 82.6314 79.0423 86.9536 80.8301 C 89.3355 81.8676 90.9016 83.1704 91.4441 84.6316 C 91.7569 85.485 91.6797 86.2175 91.5669 86.667 Z " stroke-width="1.9799313242126004"/>
        </g>
        <g id="Top_1_">
          <path id="Base_Fill_2_" fill="#AF2020" d="M 31.4502 70.7899 C 31.4502 70.7899 28.9753 68.9327 30.2127 66.7073 C 31.4502 64.4819 33.6776 63.5255 33.6776 63.7552 C 33.6776 63.9849 55.0846 81.5964 79.216 62.9533 L 79.216 60.4171 C 79.216 60.4171 88.2485 64.6046 85.2786 73.0193 C 85.2786 73.0193 79.8615 71.2869 74.8384 76.7317 C 69.8114 82.1765 65.3565 93.8086 26.8706 82.7942 C 26.8706 82.7942 23.778 81.8043 25.3857 78.8344 C 26.9934 75.8645 31.8204 73.0173 31.4502 70.7899 Z " stroke-width="1.9799313242126004"/>
          <g id="Stripes_4_">
            <path id="Stripe_17_" fill="#871212" d="M 36.0021 65.4857 C 36.0021 65.4857 32.6263 66.6895 34.3587 72.1739 C 34.3587 72.1739 34.236 75.3061 31.7611 77.9058 C 29.2861 80.5054 29.3475 82.3606 28.9139 83.3506 L 32.8738 84.295 C 32.8738 84.295 33.0599 80.8757 34.6676 78.9591 C 36.2753 77.0425 36.5703 74.2647 36.7327 73.0233 C 36.895 71.7819 35.1626 68.812 37.8236 66.7707 L 36.0021 65.4857 Z " stroke-width="1.9799313242126004"/>
            <path id="Stripe_16_" fill="#871212" d="M 42.6447 69.0694 C 42.6804 68.5546 41.4489 71.2196 41.8607 74.7181 C 42.2745 78.2166 40.1698 80.0045 39.366 82.327 C 38.5621 84.6494 38.4453 85.6493 38.4453 85.6493 L 41.3301 86.2017 C 41.3301 86.2017 42.7022 81.1846 43.8901 79.1215 C 45.0781 77.0584 44.4188 75.0428 44.4188 72.9995 C 44.4188 70.9562 45.0583 70.0534 45.0583 70.0534 L 42.6447 69.0694 Z " stroke-width="1.9799313242126004"/>
            <path id="Stripe_15_" fill="#871212" d="M 50.3823 71.0473 C 50.3823 71.2037 48.9825 74.8329 49.8061 78.4621 C 50.6298 82.0914 48.4242 86.6472 48.4242 86.6472 L 51.1881 86.8293 C 51.1881 86.8293 52.8572 82.6319 52.4454 78.9393 C 52.0336 75.2467 51.9168 74.0964 52.5107 71.3304 L 50.3823 71.0473 Z " stroke-width="1.9799313242126004"/>
            <path id="Stripe_14_" fill="#871212" d="M 57.9932 71.3463 C 57.9932 71.3463 59.8503 76.5436 58.302 81.1846 C 58.302 81.1846 59.6642 83.9347 57.4348 86.8293 L 58.9178 86.8293 C 58.9178 86.8293 61.0858 84.9741 60.4661 81.5033 C 60.4661 81.5033 62.9865 79.264 60.579 71.3483 L 57.9932 71.3483 Z " stroke-width="1.9799313242126004"/>
            <path id="Stripe_13_" fill="#871212" d="M 66.1327 69.9425 C 66.1327 69.9425 69.8906 74.6666 68.1205 81.0598 C 68.1205 81.0598 68.5739 82.0082 67.7067 83.6991 L 69.8529 82.2557 C 69.8529 82.2557 70.3559 81.1311 70.2252 80.7292 C 70.0945 80.3272 72.5219 77.1178 68.9422 69.004 L 66.1327 69.9425 Z " stroke-width="1.9799313242126004"/>
            <path id="Stripe_12_" fill="#871212" d="M 74.8028 66.046 C 74.8028 66.046 78.3092 68.5625 77.444 74.5439 L 79.6299 73.3064 C 79.6299 73.3064 79.6299 67.0775 76.6184 64.9749 L 74.8028 66.046 Z " stroke-width="1.9799313242126004"/>
            <path id="Stripe_11_" fill="#871212" d="M 79.711 63.1929 C 79.711 63.1929 85.5162 65.0184 85.0291 72.1739 L 85.0568 72.9381 C 85.0568 72.9381 89.1593 66.2519 79.218 60.6012 L 79.711 63.1929 Z " stroke-width="1.9799313242126004"/>
          </g>
          <path id="Outline_9_" d="M 79.4239 59.9656 L 78.7211 59.6389 L 78.7211 62.7059 C 71.5201 68.214 63.8637 71.0077 55.9618 71.0077 C 43.5773 71.0077 35.0656 64.2878 34.1469 63.5176 L 34.1132 63.2226 L 33.6182 63.2226 C 33.0262 63.2226 30.9493 64.3591 29.7791 66.4638 C 28.7199 68.3724 29.9653 70.1643 30.9295 70.9998 L 30.9136 71.0433 C 30.9315 71.0572 30.9513 71.0651 30.9691 71.079 C 30.9334 72.0967 29.5297 73.4787 28.1675 74.8191 C 26.9379 76.0288 25.6668 77.2781 24.9521 78.5988 C 24.3917 79.6303 24.2789 80.5767 24.6155 81.4122 C 25.152 82.7507 26.6568 83.2457 26.734 83.2694 C 37.39 86.3185 46.3274 87.8648 53.3007 87.8648 C 66.2673 87.8648 70.5855 82.6121 73.7376 78.777 C 74.2405 78.1671 74.7157 77.587 75.1988 77.0663 C 78.1073 73.9142 81.1346 73.251 83.1601 73.251 C 84.352 73.251 85.1202 73.4886 85.1281 73.4905 L 85.5835 73.6351 L 85.7419 73.1836 C 88.8286 64.4442 79.517 60.0092 79.4239 59.9656 Z M 84.9539 72.4293 C 83.4412 72.1244 78.731 71.7799 74.4741 76.3931 C 73.9791 76.9277 73.4921 77.5217 72.9773 78.1473 C 72.5021 78.7235 72.0071 79.3195 71.4725 79.9194 C 62.4361 82.9012 53.5363 79.8224 53.5363 79.8224 C 59.8206 83.3981 67.7285 81.8201 70.3004 81.1608 C 67.2493 84.1584 62.6678 86.8749 53.3007 86.8749 C 46.4205 86.8749 37.5741 85.3424 27.0251 82.323 C 27.0132 82.3191 25.8925 81.9429 25.5322 81.0361 C 25.3144 80.4896 25.4114 79.8283 25.8213 79.07 C 26.4647 77.88 27.6824 76.6822 28.8605 75.5259 C 30.2325 74.1756 31.5294 72.8867 31.866 71.6353 C 34.6676 73.1757 38.0077 73.0787 38.0077 73.0787 C 34.5112 72.2056 32.7451 71.1998 31.9175 70.5899 L 31.9056 70.5127 L 31.7472 70.3939 C 31.6621 70.3286 29.6366 68.7644 30.6444 66.9469 C 31.5987 65.2263 33.1628 64.3631 33.5588 64.2304 C 35.4635 66.048 44.397 71.9977 55.9598 71.9977 C 64.1567 71.9977 72.0843 69.0852 79.519 63.3414 L 79.709 63.1929 L 79.709 61.2367 C 81.683 62.3732 86.914 66.0717 84.9539 72.4293 Z " stroke-width="1.9799313242126004"/>
        </g>
      </g>
    </g>
  </g>
</svg>